<?xml version="1.0" encoding="UTF-8"?>
<!DOCTYPE svg PUBLIC "-//W3C//DTD SVG 1.1//EN" "http://www.w3.org/Graphics/SVG/1.1/DTD/svg11.dtd">
<svg xmlns="http://www.w3.org/2000/svg" version="1.1" width="512px" height="512px" style="shape-rendering:geometricPrecision; text-rendering:geometricPrecision; image-rendering:optimizeQuality; fill-rule:evenodd; clip-rule:evenodd" xmlns:xlink="http://www.w3.org/1999/xlink">
<g><path style="opacity:0.984" fill="#dc8764" d="M 192.5,17.5 C 187.966,18.2159 183.299,18.8825 178.5,19.5C 177.893,19.3764 177.56,19.0431 177.5,18.5C 182.405,17.5546 187.405,17.2213 192.5,17.5 Z"/></g>
<g><path style="opacity:1" fill="#800a99" d="M 192.5,17.5 C 205.309,15.0694 214.309,19.7361 219.5,31.5C 218.903,31.7352 218.57,32.2352 218.5,33C 219.156,63.9731 219.822,94.8065 220.5,125.5C 219.496,133.009 215.829,138.842 209.5,143C 201.972,144.936 194.305,146.269 186.5,147C 182.603,148.019 178.936,149.519 175.5,151.5C 172.162,151.52 169.162,153.02 166.5,156C 166.728,156.399 167.062,156.565 167.5,156.5C 164.833,158.5 162.5,160.833 160.5,163.5C 160.565,163.062 160.399,162.728 160,162.5C 158.961,163.244 158.461,164.244 158.5,165.5C 144.782,187.825 136.948,212.159 135,238.5C 134.024,248.495 133.191,258.495 132.5,268.5C 131.596,269.209 131.263,270.209 131.5,271.5C 154.673,271.831 177.673,271.498 200.5,270.5C 205.087,271.021 209.087,272.688 212.5,275.5C 212.5,277.5 213.5,278.5 215.5,278.5C 217.837,280.965 219.337,283.965 220,287.5C 220.667,350.833 220.667,414.167 220,477.5C 217.565,484.934 212.732,490.101 205.5,493C 141.833,493.667 78.1667,493.667 14.5,493C 11.8261,492.33 9.49273,491.163 7.5,489.5C 7.93822,489.565 8.27155,489.399 8.5,489C 7.52912,487.519 6.19578,486.685 4.5,486.5C 3.09368,486.027 2.42702,485.027 2.5,483.5C 1.38709,479.762 0.387092,476.096 -0.5,472.5C -0.5,401.167 -0.5,329.833 -0.5,258.5C 0.697717,244.878 2.36438,231.211 4.5,217.5C 6.08226,214.124 6.74892,210.458 6.5,206.5C 6.40132,203.763 6.73465,201.096 7.5,198.5C 9.16276,196.562 9.82943,194.228 9.5,191.5C 10.3796,189.863 11.0463,188.03 11.5,186C 11.4301,185.235 11.0967,184.735 10.5,184.5C 15.5154,163.786 22.5154,143.786 31.5,124.5C 32.3764,124.631 33.0431,124.298 33.5,123.5C 36.1932,118.114 38.8599,112.78 41.5,107.5C 50.4667,90.1864 62.4667,75.1864 77.5,62.5C 79.1958,62.3146 80.5291,61.4813 81.5,60C 81.2716,59.6012 80.9382,59.4346 80.5,59.5C 80.8333,58.5 81.5,57.8333 82.5,57.5C 82.8966,58.525 83.5632,58.6917 84.5,58C 86.0414,56.6288 87.3747,55.1288 88.5,53.5C 90.0905,51.3674 92.0905,49.7007 94.5,48.5C 94.4346,48.9382 94.6012,49.2716 95,49.5C 98.5013,47.5116 101.668,45.1783 104.5,42.5C 109.637,38.4253 115.304,35.092 121.5,32.5C 122.947,33.8852 123.947,33.5518 124.5,31.5C 141.4,24.1919 159.066,19.8585 177.5,18.5C 177.56,19.0431 177.893,19.3764 178.5,19.5C 183.299,18.8825 187.966,18.2159 192.5,17.5 Z"/></g>
<g><path style="opacity:1" fill="#800a99" d="M 503.5,21.5 C 503.062,21.4346 502.728,21.6012 502.5,22C 505.067,24.3959 507.4,26.8959 509.5,29.5C 510.167,30.1667 510.833,30.8333 511.5,31.5C 511.5,62.5 511.5,93.5 511.5,124.5C 510.442,128.999 508.775,133.333 506.5,137.5C 505.362,140.086 503.362,141.753 500.5,142.5C 500.565,142.062 500.399,141.728 500,141.5C 496.861,143.15 493.694,144.483 490.5,145.5C 473.051,145.983 459.384,153.316 449.5,167.5C 446.288,169.562 444.288,172.562 443.5,176.5C 433.063,201.574 427.063,227.574 425.5,254.5C 424.511,259.975 424.178,265.642 424.5,271.5C 449.055,271.535 473.388,271.535 497.5,271.5C 498.71,271.932 499.71,272.599 500.5,273.5C 501.262,275.262 502.596,276.262 504.5,276.5C 508.041,278.391 510.041,281.391 510.5,285.5C 510.667,349.834 510.5,414.168 510,478.5C 508.991,480.025 508.491,481.692 508.5,483.5C 506.175,488.647 502.175,491.813 496.5,493C 432.833,493.667 369.167,493.667 305.5,493C 301.5,492.16 298.5,489.994 296.5,486.5C 295.331,483.489 293.664,480.822 291.5,478.5C 290.337,409.237 290.17,339.904 291,270.5C 291.461,254.255 292.961,238.255 295.5,222.5C 296.266,220.316 296.933,217.982 297.5,215.5C 297.376,214.893 297.043,214.56 296.5,214.5C 300.507,184.454 308.84,155.788 321.5,128.5C 324.311,124.891 326.645,120.891 328.5,116.5C 328.376,115.893 328.043,115.56 327.5,115.5C 329.5,112.167 331.5,108.833 333.5,105.5C 337.79,101.614 341.123,96.9471 343.5,91.5C 358.265,69.4425 377.265,51.9425 400.5,39C 407.516,34.9891 414.85,31.8224 422.5,29.5C 425.346,29.4484 427.68,28.4484 429.5,26.5C 437.932,23.5591 446.598,21.5591 455.5,20.5C 459.458,20.7489 463.124,20.0823 466.5,18.5C 476.473,17.4372 486.473,17.2705 496.5,18C 499.174,18.6701 501.507,19.8368 503.5,21.5 Z"/></g>
<g><path style="opacity:0.737" fill="#f1a29b" d="M 466.5,18.5 C 463.124,20.0823 459.458,20.7489 455.5,20.5C 458.946,19.3126 462.613,18.6459 466.5,18.5 Z"/></g>
<g><path style="opacity:0.976" fill="#d18468" d="M 503.5,21.5 C 506.647,23.3129 508.647,25.9796 509.5,29.5C 507.4,26.8959 505.067,24.3959 502.5,22C 502.728,21.6012 503.062,21.4346 503.5,21.5 Z"/></g>
<g><path style="opacity:0.929" fill="#b78279" d="M 429.5,26.5 C 427.68,28.4484 425.346,29.4484 422.5,29.5C 424.509,27.9348 426.843,26.9348 429.5,26.5 Z"/></g>
<g><path style="opacity:0.996" fill="#ff9835" d="M 124.5,31.5 C 123.947,33.5518 122.947,33.8852 121.5,32.5C 122.609,32.4431 123.609,32.1098 124.5,31.5 Z"/></g>
<g><path style="opacity:0.447" fill="#fab6ab" d="M 219.5,31.5 C 220.485,62.7897 220.818,94.123 220.5,125.5C 219.822,94.8065 219.156,63.9731 218.5,33C 218.57,32.2352 218.903,31.7352 219.5,31.5 Z"/></g>
<g><path style="opacity:0.961" fill="#ca676e" d="M 104.5,42.5 C 101.668,45.1783 98.5013,47.5116 95,49.5C 94.6012,49.2716 94.4346,48.9382 94.5,48.5C 97.4937,46.0002 100.827,44.0002 104.5,42.5 Z"/></g>
<g><path style="opacity:0.996" fill="#ff7f6f" d="M 88.5,53.5 C 87.3747,55.1288 86.0414,56.6288 84.5,58C 83.5632,58.6917 82.8966,58.525 82.5,57.5C 84.2459,55.7484 86.2459,54.4151 88.5,53.5 Z"/></g>
<g><path style="opacity:0.91" fill="#e99c51" d="M 80.5,59.5 C 80.9382,59.4346 81.2716,59.6012 81.5,60C 80.5291,61.4813 79.1958,62.3146 77.5,62.5C 78.1667,61.1667 79.1667,60.1667 80.5,59.5 Z"/></g>
<g><path style="opacity:0.827" fill="#be8473" d="M 343.5,91.5 C 341.123,96.9471 337.79,101.614 333.5,105.5C 336.355,100.443 339.688,95.7767 343.5,91.5 Z"/></g>
<g><path style="opacity:0.957" fill="#ee8d6e" d="M 41.5,107.5 C 38.8599,112.78 36.1932,118.114 33.5,123.5C 33.0431,124.298 32.3764,124.631 31.5,124.5C 34.092,118.304 37.4253,112.637 41.5,107.5 Z"/></g>
<g><path style="opacity:0.894" fill="#e37f86" d="M 327.5,115.5 C 328.043,115.56 328.376,115.893 328.5,116.5C 326.645,120.891 324.311,124.891 321.5,128.5C 323.229,124.042 325.229,119.709 327.5,115.5 Z"/></g>
<g><path style="opacity:0.4" fill="#e87365" d="M 511.5,124.5 C 511.5,126.5 511.5,128.5 511.5,130.5C 510.581,133.327 508.914,135.66 506.5,137.5C 508.775,133.333 510.442,128.999 511.5,124.5 Z"/></g>
<g><path style="opacity:0.4" fill="#e37c69" d="M 500.5,142.5 C 497.619,144.68 494.286,145.68 490.5,145.5C 493.694,144.483 496.861,143.15 500,141.5C 500.399,141.728 500.565,142.062 500.5,142.5 Z"/></g>
<g><path style="opacity:0.212" fill="#d28f7f" d="M 175.5,151.5 C 172.833,153.167 170.167,154.833 167.5,156.5C 167.062,156.565 166.728,156.399 166.5,156C 169.162,153.02 172.162,151.52 175.5,151.5 Z"/></g>
<g><path style="opacity:0.204" fill="#e6cf80" d="M 160.5,163.5 C 160.167,164.5 159.5,165.167 158.5,165.5C 158.461,164.244 158.961,163.244 160,162.5C 160.399,162.728 160.565,163.062 160.5,163.5 Z"/></g>
<g><path style="opacity:0.161" fill="#d3867f" d="M 449.5,167.5 C 447.735,170.709 445.735,173.709 443.5,176.5C 444.288,172.562 446.288,169.562 449.5,167.5 Z"/></g>
<g><path style="opacity:0.451" fill="#b9957b" d="M 10.5,184.5 C 11.0967,184.735 11.4301,185.235 11.5,186C 11.0463,188.03 10.3796,189.863 9.5,191.5C 9.44805,189.097 9.78138,186.764 10.5,184.5 Z"/></g>
<g><path style="opacity:0.976" fill="#be7a67" d="M 9.5,191.5 C 9.82943,194.228 9.16276,196.562 7.5,198.5C 7.72148,195.933 8.38815,193.599 9.5,191.5 Z"/></g>
<g><path style="opacity:0.373" fill="#cf7870" d="M 6.5,206.5 C 6.74892,210.458 6.08226,214.124 4.5,217.5C 4.64593,213.613 5.3126,209.946 6.5,206.5 Z"/></g>
<g><path style="opacity:0.447" fill="#e2a991" d="M 296.5,214.5 C 297.043,214.56 297.376,214.893 297.5,215.5C 296.933,217.982 296.266,220.316 295.5,222.5C 295.279,219.721 295.612,217.054 296.5,214.5 Z"/></g>
<g><path style="opacity:0.467" fill="#ec76b7" d="M 132.5,268.5 C 154.809,270.49 177.475,271.156 200.5,270.5C 177.673,271.498 154.673,271.831 131.5,271.5C 131.263,270.209 131.596,269.209 132.5,268.5 Z"/></g>
<g><path style="opacity:0.467" fill="#ea7baf" d="M 425.5,254.5 C 425.5,259.833 425.5,265.167 425.5,270.5C 449.545,270.186 473.545,270.52 497.5,271.5C 473.388,271.535 449.055,271.535 424.5,271.5C 424.178,265.642 424.511,259.975 425.5,254.5 Z"/></g>
<g><path style="opacity:0.29" fill="#d9ae5e" d="M 500.5,273.5 C 502.404,273.738 503.738,274.738 504.5,276.5C 502.596,276.262 501.262,275.262 500.5,273.5 Z"/></g>
<g><path style="opacity:0.898" fill="#a1d88d" d="M 212.5,275.5 C 213.833,276.167 214.833,277.167 215.5,278.5C 213.5,278.5 212.5,277.5 212.5,275.5 Z"/></g>
<g><path style="opacity:0.988" fill="#fb3469" d="M 510.5,285.5 C 510.833,285.5 511.167,285.5 511.5,285.5C 511.5,350.167 511.5,414.833 511.5,479.5C 510.5,480.833 509.5,482.167 508.5,483.5C 508.491,481.692 508.991,480.025 510,478.5C 510.5,414.168 510.667,349.834 510.5,285.5 Z"/></g>
<g><path style="opacity:0.235" fill="#d5766b" d="M -0.5,472.5 C 0.387092,476.096 1.38709,479.762 2.5,483.5C 1.5,482.167 0.5,480.833 -0.5,479.5C -0.5,477.167 -0.5,474.833 -0.5,472.5 Z"/></g>
<g><path style="opacity:0.612" fill="#ef846c" d="M 291.5,478.5 C 293.664,480.822 295.331,483.489 296.5,486.5C 293.836,484.516 292.169,481.849 291.5,478.5 Z"/></g>
<g><path style="opacity:0.102" fill="#e3ba6c" d="M 4.5,486.5 C 6.19578,486.685 7.52912,487.519 8.5,489C 8.27155,489.399 7.93822,489.565 7.5,489.5C 6.16667,488.833 5.16667,487.833 4.5,486.5 Z"/></g>
</svg>
